<svg width="145" height="37" viewBox="0 0 145 37" fill="none" xmlns="http://www.w3.org/2000/svg">
<path d="M0 0.562931V36.6418H21.536V28.9654H10.1712V0.562931H0Z" fill="#E5E5E5"/>
<path d="M62.8027 18.4744C62.8027 7.62517 54.4997 0 44.069 0C33.6902 0 25.2833 7.62517 25.2833 18.4744C25.2833 29.3237 33.6902 37 44.069 37C54.4478 37 62.8027 29.3237 62.8027 18.4744ZM35.6621 18.4744C35.6621 12.7939 38.7758 9.21162 44.069 9.21162C49.3103 9.21162 52.4758 12.7939 52.4758 18.4744C52.4758 24.0526 49.3103 27.686 44.069 27.686C38.7758 27.686 35.6621 24.0526 35.6621 18.4744Z" fill="#E5E5E5"/>
<path d="M85.6936 0.204703C74.4845 0.204703 67.1675 7.7787 67.1675 18.5256C67.1675 29.3237 74.5364 36.8976 85.7455 36.8976C95.294 36.8976 100.95 31.0636 103.13 25.7925V16.0692H84.1368V23.2849H94.3599C92.855 26.4066 90.2603 28.0443 86.7315 28.0443C80.7118 28.0443 77.4944 24.7178 77.4944 18.5256C77.4944 12.9986 80.608 9.4675 85.7455 9.4675C88.5478 9.4675 90.6236 10.5422 91.7653 12.4357H102.715C101.262 4.91286 94.9308 0.204703 85.6936 0.204703Z" fill="#E5E5E5"/>
<path d="M145 18.4744C145 7.62517 136.697 0 126.266 0C115.887 0 107.481 7.62517 107.481 18.4744C107.481 29.3237 115.887 37 126.266 37C136.645 37 145 29.3237 145 18.4744ZM117.859 18.4744C117.859 12.7939 120.973 9.21162 126.266 9.21162C131.508 9.21162 134.673 12.7939 134.673 18.4744C134.673 24.0526 131.508 27.686 126.266 27.686C120.973 27.686 117.859 24.0526 117.859 18.4744Z" fill="#E5E5E5"/>
</svg>
